# xmcd
#
# Track frame offsets: 
#        150
#        24419
#        49336
#        68763
#        96241
#        122356
#        143622
#        170761
#        196285
#        214561
#
# Disc length: 3209 seconds
#
# Revision: 0
# Processed by: cddbd v1.5.2PL0 Copyright (c) Steve Scherf et al.
# Submitted via: ExactAudioCopy v1.0b3
#
DISCID=870c870a
DTITLE=Thanh Tuyen - Muoi Nam Tai Ngo
DYEAR=1999
DGENRE=
TTITLE0=Biet noi gi day
TTITLE1=Tu ngay tinh bo ta di
TTITLE2=Tinh khuc buon
TTITLE3=Thang sau troi mua
TTITLE4=Muoi nam tai ngo
TTITLE5=Ky niem nao hon
TTITLE6=Dung hoi tai sao
TTITLE7=Chuyen tinh buon
TTITLE8=Mot minh trong chieu vang
TTITLE9=Chieu tan
EXTD=
EXTT0=
EXTT1=
EXTT2=
EXTT3=
EXTT4=
EXTT5=
EXTT6=
EXTT7=
EXTT8=
EXTT9=
PLAYORDER=
